HIERARCHY
ROOT Hips
{
	OFFSET 0.000000 97.167313 0.000000
	CHANNELS 6 Xposition Yposition Zposition Xrotation Yrotation Zrotation
	JOINT Spine
	{
		OFFSET 0.000000 13.784798 0.064400
		CHANNELS 3 Xrotation Yrotation Zrotation
		JOINT Spine1
		{
			OFFSET 0.000000 12.037903 0.404700
			CHANNELS 3 Xrotation Yrotation Zrotation
			JOINT Spine2
			{
				OFFSET 0.000000 17.795601 0.420200
				CHANNELS 3 Xrotation Yrotation Zrotation
				JOINT Neck
				{
					OFFSET 0.000000 39.131302 11.954600
					CHANNELS 3 Xrotation Yrotation Zrotation
					JOINT Head
					{
						OFFSET 0.000000 14.456192 15.627699
						CHANNELS 3 Xrotation Yrotation Zrotation
						JOINT HeadTop_End
						{
							OFFSET 0.000000 15.703506 7.603401
							CHANNELS 3 Xrotation Yrotation Zrotation
							End Site
							{
								OFFSET 0.000000 17.447403 0.000000
							}
						}
					}
				}
				JOINT LeftShoulder
				{
					OFFSET 17.399500 24.608795 1.168800
					CHANNELS 3 Xrotation Yrotation Zrotation
					JOINT LeftArm
					{
						OFFSET 18.980635 5.765305 1.818600
						CHANNELS 3 Xrotation Yrotation Zrotation
						JOINT LeftForeArm
						{
							OFFSET 49.290169 0.000000 0.000000
							CHANNELS 3 Xrotation Yrotation Zrotation
							JOINT LeftHand
							{
								OFFSET 31.562012 0.000000 0.000000
								CHANNELS 3 Xrotation Yrotation Zrotation
								JOINT LeftHandThumb1
								{
									OFFSET 6.133995 -4.388519 7.076070
									CHANNELS 3 Xrotation Yrotation Zrotation
									JOINT LeftHandThumb2
									{
										OFFSET 6.037666 -3.485840 3.485847
										CHANNELS 3 Xrotation Yrotation Zrotation
										JOINT LeftHandThumb3
										{
											OFFSET 6.496506 -3.750763 3.750761
											CHANNELS 3 Xrotation Yrotation Zrotation
											JOINT LeftHandThumb4
											{
												OFFSET 5.616882 -3.242905 3.242910
												CHANNELS 3 Xrotation Yrotation Zrotation
												End Site
												{
													OFFSET -1.254608 7.132141 0.375429
												}
											}
										}
									}
								}
								JOINT LeftHandPinky1
								{
									OFFSET 18.920792 -0.453171 -11.426712
									CHANNELS 3 Xrotation Yrotation Zrotation
									JOINT LeftHandPinky2
									{
										OFFSET 4.919586 0.000000 0.000000
										CHANNELS 3 Xrotation Yrotation Zrotation
										JOINT LeftHandPinky3
										{
											OFFSET 5.233047 0.000000 0.000000
											CHANNELS 3 Xrotation Yrotation Zrotation
											JOINT LeftHandPinky4
											{
												OFFSET 5.571716 0.000000 0.000000
												CHANNELS 3 Xrotation Yrotation Zrotation
												End Site
												{
													OFFSET -3.459808 4.342407 -0.466164
												}
											}
										}
									}
								}
								JOINT LeftHandRing1
								{
									OFFSET 22.726120 -0.094986 -6.500475
									CHANNELS 3 Xrotation Yrotation Zrotation
									JOINT LeftHandRing2
									{
										OFFSET 6.408615 0.000000 0.000000
										CHANNELS 3 Xrotation Yrotation Zrotation
										JOINT LeftHandRing3
										{
											OFFSET 6.150223 0.000000 0.000000
											CHANNELS 3 Xrotation Yrotation Zrotation
											JOINT LeftHandRing4
											{
												OFFSET 6.145386 0.000000 0.000000
												CHANNELS 3 Xrotation Yrotation Zrotation
												End Site
												{
													OFFSET -3.671402 4.923981 -0.202372
												}
											}
										}
									}
								}
								JOINT LeftHandMiddle1
								{
									OFFSET 23.373947 0.000000 0.000001
									CHANNELS 3 Xrotation Yrotation Zrotation
									JOINT LeftHandMiddle2
									{
										OFFSET 6.996567 0.000000 0.000000
										CHANNELS 3 Xrotation Yrotation Zrotation
										JOINT LeftHandMiddle3
										{
											OFFSET 7.015945 0.000000 0.000000
											CHANNELS 3 Xrotation Yrotation Zrotation
											JOINT LeftHandMiddle4
											{
												OFFSET 7.721573 0.000000 0.000000
												CHANNELS 3 Xrotation Yrotation Zrotation
												End Site
												{
													OFFSET -4.651108 6.158463 0.251582
												}
											}
										}
									}
								}
								JOINT LeftHandIndex1
								{
									OFFSET 21.310577 -0.490082 6.209344
									CHANNELS 3 Xrotation Yrotation Zrotation
									JOINT LeftHandIndex2
									{
										OFFSET 7.536453 0.000000 0.000000
										CHANNELS 3 Xrotation Yrotation Zrotation
										JOINT LeftHandIndex3
										{
											OFFSET 7.512344 0.000000 0.000000
											CHANNELS 3 Xrotation Yrotation Zrotation
											JOINT LeftHandIndex4
											{
												OFFSET 10.212402 0.000000 0.000001
												CHANNELS 3 Xrotation Yrotation Zrotation
												End Site
												{
													OFFSET -5.180801 8.690506 1.388433
												}
											}
										}
									}
								}
							}
						}
					}
				}
				JOINT RightShoulder
				{
					OFFSET -17.399500 24.608795 1.168800
					CHANNELS 3 Xrotation Yrotation Zrotation
					JOINT RightArm
					{
						OFFSET -18.980635 5.765305 1.818600
						CHANNELS 3 Xrotation Yrotation Zrotation
						JOINT RightForeArm
						{
							OFFSET -49.290169 0.000000 0.000000
							CHANNELS 3 Xrotation Yrotation Zrotation
							JOINT RightHand
							{
								OFFSET -31.562012 0.000000 0.000000
								CHANNELS 3 Xrotation Yrotation Zrotation
								JOINT RightHandThumb1
								{
									OFFSET -6.133995 -4.388519 7.076070
									CHANNELS 3 Xrotation Yrotation Zrotation
									JOINT RightHandThumb2
									{
										OFFSET -6.037666 -3.485840 3.485847
										CHANNELS 3 Xrotation Yrotation Zrotation
										JOINT RightHandThumb3
										{
											OFFSET -6.496506 -3.750763 3.750761
											CHANNELS 3 Xrotation Yrotation Zrotation
											JOINT RightHandThumb4
											{
												OFFSET -5.616882 -3.242905 3.242910
												CHANNELS 3 Xrotation Yrotation Zrotation
												End Site
												{
													OFFSET 1.254608 7.132141 0.375429
												}
											}
										}
									}
								}
								JOINT RightHandIndex1
								{
									OFFSET -21.310577 -0.490082 6.209344
									CHANNELS 3 Xrotation Yrotation Zrotation
									JOINT RightHandIndex2
									{
										OFFSET -7.536453 0.000000 0.000000
										CHANNELS 3 Xrotation Yrotation Zrotation
										JOINT RightHandIndex3
										{
											OFFSET -7.512344 0.000000 0.000000
											CHANNELS 3 Xrotation Yrotation Zrotation
											JOINT RightHandIndex4
											{
												OFFSET -10.212402 0.000000 0.000001
												CHANNELS 3 Xrotation Yrotation Zrotation
												End Site
												{
													OFFSET 5.180801 8.690506 1.388433
												}
											}
										}
									}
								}
								JOINT RightHandMiddle1
								{
									OFFSET -23.373947 0.000000 0.000001
									CHANNELS 3 Xrotation Yrotation Zrotation
									JOINT RightHandMiddle2
									{
										OFFSET -6.996567 0.000000 0.000000
										CHANNELS 3 Xrotation Yrotation Zrotation
										JOINT RightHandMiddle3
										{
											OFFSET -7.015945 0.000000 0.000000
											CHANNELS 3 Xrotation Yrotation Zrotation
											JOINT RightHandMiddle4
											{
												OFFSET -7.721573 0.000000 0.000000
												CHANNELS 3 Xrotation Yrotation Zrotation
												End Site
												{
													OFFSET 4.651108 6.158463 0.251582
												}
											}
										}
									}
								}
								JOINT RightHandRing1
								{
									OFFSET -22.726120 -0.094986 -6.500475
									CHANNELS 3 Xrotation Yrotation Zrotation
									JOINT RightHandRing2
									{
										OFFSET -6.408615 0.000000 0.000000
										CHANNELS 3 Xrotation Yrotation Zrotation
										JOINT RightHandRing3
										{
											OFFSET -6.150223 0.000000 0.000000
											CHANNELS 3 Xrotation Yrotation Zrotation
											JOINT RightHandRing4
											{
												OFFSET -6.145386 0.000000 0.000000
												CHANNELS 3 Xrotation Yrotation Zrotation
												End Site
												{
													OFFSET 3.671402 4.923981 -0.202372
												}
											}
										}
									}
								}
								JOINT RightHandPinky1
								{
									OFFSET -18.920792 -0.453171 -11.426712
									CHANNELS 3 Xrotation Yrotation Zrotation
									JOINT RightHandPinky2
									{
										OFFSET -4.919586 0.000000 0.000000
										CHANNELS 3 Xrotation Yrotation Zrotation
										JOINT RightHandPinky3
										{
											OFFSET -5.233047 0.000000 0.000000
											CHANNELS 3 Xrotation Yrotation Zrotation
											JOINT RightHandPinky4
											{
												OFFSET -5.571716 0.000000 0.000000
												CHANNELS 3 Xrotation Yrotation Zrotation
												End Site
												{
													OFFSET 3.459808 4.342407 -0.466164
												}
											}
										}
									}
								}
							}
						}
					}
				}
			}
		}
	}
	JOINT LeftUpLeg
	{
		OFFSET 19.899099 -7.885101 -3.429500
		CHANNELS 3 Xrotation Yrotation Zrotation
		JOINT LeftLeg
		{
			OFFSET 1.745560 -36.997807 10.304700
			CHANNELS 3 Xrotation Yrotation Zrotation
			JOINT LeftFoot
			{
				OFFSET -1.745558 -29.803308 -13.615400
				CHANNELS 3 Xrotation Yrotation Zrotation
				JOINT LeftToeBase
				{
					OFFSET 1.181900 -18.539904 15.226099
					CHANNELS 3 Xrotation Yrotation Zrotation
					JOINT LeftToe_End
					{
						OFFSET -0.863701 1.402801 16.534700
						CHANNELS 3 Xrotation Yrotation Zrotation
						End Site
						{
							OFFSET 0.000000 16.616566 0.000000
						}
					}
				}
			}
		}
	}
	JOINT RightUpLeg
	{
		OFFSET -19.899099 -7.885101 -3.429500
		CHANNELS 3 Xrotation Yrotation Zrotation
		JOINT RightLeg
		{
			OFFSET -1.745560 -36.997807 10.304700
			CHANNELS 3 Xrotation Yrotation Zrotation
			JOINT RightFoot
			{
				OFFSET 1.745558 -29.803308 -13.615400
				CHANNELS 3 Xrotation Yrotation Zrotation
				JOINT RightToeBase
				{
					OFFSET -1.181900 -18.539904 15.226099
					CHANNELS 3 Xrotation Yrotation Zrotation
					JOINT RightToe_End
					{
						OFFSET 0.863701 1.402801 16.534700
						CHANNELS 3 Xrotation Yrotation Zrotation
						End Site
						{
							OFFSET 0.000000 16.616566 0.000000
						}
					}
				}
			}
		}
	}
}
MOTION
Frames: 4
Frame Time: 0.033333
2.438960 56.930717 17.682045 -26.719000 -4.330243 -0.428804 5.179465 1.278325 3.161546 -10.379440 -1.348826 0.898740 -10.373180 -1.267609 0.977974 -36.931055 -5.674743 11.351546 -18.700862 -1.791493 -12.588470 -0.000000 -0.000001 -0.000000 -1.655213 -4.650818 3.758740 -120.015808 -23.299187 -100.447057 -0.000028 -114.506489 -0.000067 -54.254218 -11.111165 -3.476435 2.524885 -1.400502 30.315559 3.199436 22.041324 -25.841247 -4.598642 31.679988 4.898610 0.000000 0.000001 -0.000001 1.613726 10.755389 -10.843224 0.166971 1.390127 -13.698066 0.106965 1.115520 -10.953580 -0.000000 0.000001 0.000001 1.422464 9.601216 -11.234346 0.211798 1.562495 -15.437209 0.273144 1.769672 -17.547570 -0.000000 0.000000 0.000005 0.937222 6.959983 -12.240842 0.364409 2.035705 -20.295164 0.262784 1.736613 -17.209159 -0.000000 0.000001 0.000007 -0.393105 1.831805 -17.806120 0.395387 2.117581 -21.150301 0.083123 0.984463 -9.653219 -0.000001 0.000000 -0.000002 -24.312069 1.701575 -18.080264 -91.473554 4.274790 84.033928 -0.000008 128.099201 0.000030 -38.912660 18.770663 -3.419788 -8.954867 -1.863811 -17.637925 -0.287987 -21.871300 10.550276 -6.183422 -37.577529 -10.539951 -0.000003 0.000000 0.000002 2.741013 1.498081 8.760448 0.618477 -2.320998 29.837931 0.119682 -1.050185 13.004375 -0.000001 -0.000003 -0.000001 0.137333 -3.735681 3.900415 0.504840 -2.110759 26.899903 0.323302 -1.706555 21.452907 0.000002 0.000002 -0.000001 0.436791 -7.742953 3.995459 0.400400 -1.890976 23.909069 0.322813 -1.705303 21.436354 -0.000001 0.000000 -0.000002 -11.204981 -9.907760 1.846751 0.271726 -1.569052 19.648774 0.270301 -1.565076 19.596941 -0.000000 -0.000002 0.000004 -54.143852 -5.016992 14.595783 45.297149 5.140094 2.820398 35.602153 -3.514508 -8.267821 4.866278 -0.003934 0.409435 -0.000000 0.000001 -0.000000 -56.843672 -5.591683 -13.732543 76.704848 -6.726060 6.505177 -2.795764 -30.507269 -10.758272 -8.227635 -0.000002 0.000003 -0.000000 0.000002 0.000000 
2.413481 56.838890 17.468285 -26.700297 -4.170730 -0.196126 5.173515 1.203511 2.778594 -10.419746 -1.386441 0.813797 -10.414186 -1.309497 0.893260 -36.411120 -5.820215 11.760473 -19.764336 -1.985695 -13.081374 0.000001 -0.000002 0.000000 -1.573453 -5.525139 4.026938 -120.335379 -23.721653 -99.965330 -0.000011 -114.072697 -0.000027 -54.462190 -11.625689 -3.765658 2.518911 -1.386684 30.297469 3.199287 22.032751 -25.831589 -4.603621 31.669473 4.898861 -0.000000 0.000001 -0.000002 1.615916 10.756132 -10.858789 0.167109 1.390594 -13.703017 0.106962 1.115528 -10.953702 0.000000 0.000001 -0.000007 1.424043 9.600820 -11.249430 0.211772 1.562439 -15.436627 0.273099 1.769532 -17.546041 -0.000000 -0.000001 0.000005 0.939134 6.962620 -12.262390 0.364317 2.035498 -20.292895 0.262639 1.736110 -17.203976 -0.000000 -0.000001 0.000008 -0.392677 1.838609 -17.851750 0.395454 2.117741 -21.152080 0.083126 0.984443 -9.653215 -0.000001 0.000004 0.000002 -24.340470 1.438220 -18.101950 -91.648066 3.709000 84.123909 -0.000040 128.174415 0.000066 -38.923687 18.291006 -2.762978 -8.936626 -1.872704 -17.634174 -0.316298 -21.888687 10.513087 -6.169422 -37.573472 -10.515711 0.000002 0.000005 0.000000 2.740444 1.504600 8.741011 0.618472 -2.320993 29.837920 0.119702 -1.050185 13.004409 -0.000002 0.000002 0.000001 0.136746 -3.733059 3.880585 0.504857 -2.110776 26.900227 0.323283 -1.706575 21.452902 -0.000001 0.000005 -0.000001 0.435840 -7.746576 3.981764 0.399947 -1.889911 23.894867 0.321953 -1.703126 21.407619 -0.000001 0.000001 -0.000003 -11.206588 -9.911231 1.834700 0.271571 -1.568626 19.643071 0.270148 -1.564638 19.591201 -0.000003 0.000001 0.000003 -54.504121 -4.979761 14.449849 47.659127 4.223290 2.643448 33.422448 -3.401108 -8.456102 4.887572 -0.000022 0.001654 0.000000 0.000001 -0.000000 -57.161529 -5.469029 -13.895725 76.683852 -6.664364 6.492835 -2.595086 -30.683573 -10.889588 -8.268394 0.000018 0.000004 -0.000000 0.000001 0.000000 
2.371596 56.732780 17.165619 -26.619236 -4.010148 0.138906 5.188950 1.085897 2.264946 -10.418327 -1.434789 0.694464 -10.413781 -1.362049 0.773756 -35.948351 -5.844837 11.896382 -20.708884 -2.136864 -13.312488 0.000000 -0.000001 0.000000 -1.480094 -6.395810 4.304361 -120.580597 -24.021874 -99.311777 0.000016 -113.801258 -0.000001 -54.599904 -11.923109 -3.914368 2.511470 -1.369171 30.274749 3.198872 22.020967 -25.819920 -4.609935 31.656441 4.899229 -0.000000 -0.000001 -0.000002 1.618588 10.756615 -10.878493 0.167218 1.391100 -13.707860 0.106972 1.115562 -10.953988 -0.000000 0.000000 -0.000006 1.426120 9.600756 -11.268437 0.211759 1.562385 -15.435994 0.273048 1.769364 -17.544466 0.000001 -0.000001 0.000005 0.941480 6.965723 -12.289430 0.364121 2.035003 -20.287856 0.262451 1.735462 -17.197426 0.000001 -0.000001 0.000004 -0.392246 1.846703 -17.909340 0.395528 2.117913 -21.154095 0.083113 0.984466 -9.653203 0.000000 0.000002 -0.000003 -24.282374 1.422439 -17.965276 -92.008447 3.581145 83.949575 -0.000002 128.070596 0.000019 -38.951428 18.030706 -2.348995 -8.919143 -1.881104 -17.630561 -0.343302 -21.905161 10.477444 -6.156085 -37.569497 -10.492587 0.000001 0.000000 0.000001 2.739927 1.510814 8.722391 0.618469 -2.321006 29.837920 0.119681 -1.050191 13.004369 -0.000001 -0.000001 0.000001 0.136196 -3.730495 3.861624 0.504885 -2.110804 26.900545 0.323297 -1.706543 21.452912 0.000004 0.000004 -0.000004 0.434927 -7.750012 3.968639 0.399484 -1.888898 23.881290 0.321128 -1.701044 21.380143 0.000000 0.000003 -0.000005 -11.208177 -9.914491 1.823173 0.271420 -1.568185 19.637595 0.270014 -1.564245 19.585776 -0.000000 -0.000000 0.000002 -54.924526 -4.984492 14.495267 50.382713 4.185510 2.367791 30.982896 -3.506808 -8.603508 5.104608 -0.000024 0.002241 0.000000 -0.000000 -0.000000 -57.665054 -5.280884 -14.166705 76.597327 -6.637443 6.483622 -2.219340 -30.694006 -11.041049 -8.275969 0.000002 0.000002 0.000001 0.000000 -0.000000 
2.335629 56.638489 16.849110 -26.529355 -3.898684 0.477746 5.239468 0.969252 1.705780 -10.341763 -1.450740 0.573860 -10.338665 -1.381590 0.651813 -35.732702 -5.790946 11.747809 -20.870014 -2.343074 -13.393618 -0.000000 -0.000000 0.000001 -1.375250 -7.259426 4.591898 -120.409692 -24.294194 -98.413327 0.000016 -113.863044 -0.000001 -54.664647 -12.056149 -3.562238 2.502792 -1.348021 30.247254 3.198018 22.006294 -25.806067 -4.617874 31.640862 4.899637 -0.000000 -0.000002 -0.000002 1.621770 10.756839 -10.902225 0.167320 1.391558 -13.712481 0.106976 1.115620 -10.954541 0.000000 0.000001 -0.000004 1.428699 9.601070 -11.291256 0.211740 1.562316 -15.435394 0.273014 1.769192 -17.542656 -0.000000 0.000002 0.000002 0.944285 6.969303 -12.322229 0.363865 2.034260 -20.280155 0.262190 1.734668 -17.189418 -0.000001 0.000001 0.000007 -0.391829 1.856083 -17.979484 0.395613 2.118132 -21.156299 0.083130 0.984460 -9.653206 -0.000001 0.000003 0.000002 -24.180222 1.382058 -17.734415 -92.167037 3.885003 83.752995 0.000017 127.903816 0.000002 -39.000892 17.960939 -2.395408 -8.902587 -1.889154 -17.627137 -0.368836 -21.920541 10.443603 -6.143540 -37.565593 -10.470738 -0.000000 0.000000 0.000002 2.739473 1.516732 8.704736 0.618490 -2.321014 29.837948 0.119683 -1.050171 13.004352 -0.000001 -0.000001 -0.000001 0.135670 -3.728112 3.843642 0.504892 -2.110813 26.900809 0.323274 -1.706546 21.452888 0.000003 0.000005 -0.000008 0.434085 -7.753311 3.956210 0.399055 -1.887957 23.868422 0.320368 -1.699080 21.354149 -0.000001 0.000001 -0.000003 -11.209718 -9.917560 1.812243 0.271277 -1.567794 19.632375 0.269860 -1.563834 19.580518 0.000002 -0.000001 0.000004 -55.300309 -4.957550 14.598488 53.382327 4.918836 2.116581 28.224206 -3.736372 -8.409502 5.503882 0.000001 0.002917 -0.000000 -0.000000 -0.000000 -58.182598 -5.102667 -14.426934 76.462390 -6.659762 6.464429 -1.820413 -30.662031 -11.233402 -8.260068 0.000018 0.000003 -0.000000 0.000001 -0.000000 
